/* XPM */
static char *result[] = {
/* columns rows colors chars-per-pixel */
"32 32 6 1 ",
"  c #311702",
". c #023105",
"X c #421F03",
"o c #034207",
"O c #05660B",
"+ c None",
/* pixels */
"++++++++++++++++++++++++++++++++",
"++++++++++++++++++++++++++++++++",
"++++++++++oo+o+oooo+++++++++++++",
"++++++++..ooooooOOooo.++++++++++",
"+++++++....oooooOOoo...+++++++++",
"+++++...o...OOOOOOoo.....+++++++",
"+++....oo...ooOOOOOooo....++++++",
"++..ooooooOOoOOOOOOOooo...++++++",
"++..ooooOOOOOOOOOOOoooo...++++++",
"++..oooOOOOOOOOOOOoooooo....++++",
"++..oooOOOOOOOOOooooOoooo....+++",
"+++..ooOOOOOOOOOooOOOOOoo....+++",
"++...ooOOOOOOOooooOOOOOOo...++++",
"++....oOOOOOooooooOOOOOOoo..++++",
"+....oOOOOOoooo.oooOOOOOooo..+++",
"+....ooOOooo....ooooOOOoooo..+++",
"+...oooOooooooo..ooooooooo....++",
"++...oooo...o.....oooooo......++",
"+++...oo..  .. ...............++",
"+++.......+  . .. ... .......+++",
"++++......++    . .   +.....++++",
"++++++..+++++X      ++++...+++++",
"+++++++++++++X    ++++++++++++++",
"+++++++++++++X XX ++++++++++++++",
"+++++++++++++X X  ++++++++++++++",
"+++++++++++++X    ++++++++++++++",
"+++++++++++++X    ++++++++++++++",
"+++++++++++++X    ++++++++++++++",
"+++++++++++++X    ++++++++++++++",
"++++++++++++XX     +++++++++++++",
"++++++++++++++++++++++++++++++++",
"++++++++++++++++++++++++++++++++"
};
