/* XPM */
static char *_a6da08982ab4267ee4dc772b76e4140ekMZwyhP7f9bb1j4[] = {
/* columns rows colors chars-per-pixel */
"64 64 5 1 ",
"  c None",
". c #2C342A",
"X c #787C76",
"o c #C6A300",
"O c white",
/* pixels */
"                                                                ",
"                                                                ",
"                                                                ",
"                                                                ",
"                                                                ",
"                                                                ",
"                                                                ",
"                                                                ",
"                                                                ",
"                                                                ",
"                                                                ",
"                                                                ",
"                                                                ",
"                                                                ",
"                                                                ",
"                                                                ",
"                                                                ",
"                                                                ",
"                                                                ",
"                                                                ",
"                                                                ",
"                                                                ",
"                                                                ",
"                  ......              ......                    ",
"                  ......              ......                    ",
"                  ..OOOO....      ....OOOO..                    ",
"                  ..OOOO....      ....OOOO..                    ",
"                  ..XXXXOOOO......OOOOOOOO..                    ",
"                  ..XXXXOOOO......OOOOOOOO..                    ",
"                    ..XXXXXX..oooo..OOOO..                      ",
"                    ..XXXXXX..oooo..OOOO..                      ",
"                      ......oo....oo....                        ",
"                      ......oo....oo....                        ",
"                          ..oo....oo..                          ",
"                          ..oo....oo..                          ",
"                            ..oooo..                            ",
"                            ..oooo..                            ",
"                            ..oooo..                            ",
"                            ..oooo..                            ",
"                          ..oooooo..                            ",
"                          ..oooooo..                            ",
"                          ..oooooo..                            ",
"                          ..oooooo..                            ",
"                          ....oooo..                            ",
"                          ....oooo..                            ",
"                            ........                            ",
"                            ........                            ",
"                                                                ",
"                                                                ",
"                                                                ",
"                                                                ",
"                                                                ",
"                                                                ",
"                                                                ",
"                                                                ",
"                                                                ",
"                                                                ",
"                                                                ",
"                                                                ",
"                                                                ",
"                                                                ",
"                                                                ",
"                                                                ",
"                                                                "
};
