/* XPM */
static char *result[] = {
/* columns rows colors chars-per-pixel */
"64 64 113 2 ",
"   c #673D3E",
".  c #6A3D3B",
"X  c #733B31",
"o  c #7A3E31",
"O  c #794137",
"+  c #37497A",
"@  c #3B4C7D",
"#  c #5E4A5F",
"$  c #664046",
"%  c #66434A",
"&  c #734444",
"*  c #7D4D4E",
"=  c #634A5D",
"-  c #7F4F50",
";  c #7F5051",
":  c #454F7B",
">  c #46507D",
",  c #48517E",
"<  c #6A5267",
"1  c #64536E",
"2  c #6B556D",
"3  c #635572",
"4  c #6D5771",
"5  c #6F5872",
"6  c #715972",
"7  c #874536",
"8  c #894737",
"9  c #8D4C3E",
"0  c #97503D",
"q  c #98503C",
"w  c #8F544F",
"e  c #965545",
"r  c #9C5543",
"t  c #9D5846",
"y  c #985748",
"u  c #825254",
"i  c #A05742",
"p  c #A25944",
"a  c #A35B4B",
"s  c #A95F4E",
"d  c #AB5754",
"f  c #AE5D56",
"g  c #B15D56",
"h  c #AC6251",
"j  c #B66555",
"k  c #B76855",
"l  c #BA6957",
"z  c #B76959",
"x  c #BC6B59",
"c  c #B57D7B",
"v  c #B87F7A",
"b  c #CF7F4D",
"n  c #C16F5D",
"m  c #CA7853",
"M  c #C2705E",
"N  c #C8715E",
"B  c #C57362",
"V  c #C87766",
"C  c #CA7867",
"Z  c #CC7A69",
"A  c #D27F6E",
"S  c #D68D30",
"D  c #EFA43A",
"F  c #B9807B",
"G  c #CD864D",
"H  c #CD8C49",
"J  c #D1814D",
"K  c #E59443",
"L  c #ED9E45",
"P  c #E5964A",
"I  c #F4AF5C",
"U  c #F1B158",
"Y  c #D2806F",
"T  c #D48273",
"R  c #DD8774",
"E  c #DD8875",
"W  c #E18D7C",
"Q  c #FEEE61",
"!  c #3E4F81",
"~  c #404F80",
"^  c #435284",
"/  c #4C5582",
"(  c #4F5887",
")  c #465589",
"_  c #495689",
"`  c #4D598D",
"'  c #515886",
"]  c #5C5B83",
"[  c #545B8B",
"{  c #595E8E",
"}  c #4F5B90",
"|  c #525D92",
" . c #595F90",
".. c #5B608F",
"X. c #576196",
"o. c #5D6294",
"O. c #55639B",
"+. c #5B649B",
"@. c #5E689F",
"#. c #746585",
"$. c #616596",
"%. c #626699",
"&. c #5F6AA4",
"*. c #626AA2",
"=. c #937385",
"-. c #977688",
";. c #98778A",
":. c #9B798D",
">. c #A17C8E",
",. c #C48580",
"<. c #EE9584",
"1. c #FFEC84",
"2. c None",
/* pixels */
"2.2.2.2.2.2.2.2.2.2.2.2.2.2.2.2.2.2.2.2.2.2.2.2.2.2.2.2.2.2.2.2.2.2.2.2.2.2.2.2.2.2.2.2.2.2.2.2.2.2.2.2.2.2.2.2.2.2.2.2.2.2.2.2.",
"2.2.2.2.2.2.2.2.2.2.2.2.2.2.2.2.2.2.2.2.2.2.2.2.2.2.2.2.2.2.2.2.2.2.2.2.2.2.2.2.2.2.2.2.2.2.2.2.2.2.2.2.2.2.2.2.2.2.2.2.2.2.2.2.",
"2.2.2.2.2.2.2.2.2.2.2.2.2.2.2.2.2.2.2.2.2.2.2.2.2.2.2.2.2.2.2.2.2.2.2.2.2.2.2.2.2.2.2.2.2.2.2.2.2.2.2.2.2.2.2.2.2.2.2.2.2.2.2.2.",
"2.2.2.2.2.2.2.2.2.2.2.2.2.2.2.2.2.2.2.2.2.2.2.2.2.2.2.2.2.2.2.2.2.2.2.2.2.2.2.2.2.2.2.2.2.2.2.2.2.2.2.2.2.2.2.2.2.2.2.2.2.2.2.2.",
"2.2.2.2.2.2.2.2.2.2.2.2.2.2.2.2.2.2.2.2.2.2.2.2.2.2.2.2.2.2.2.2.2.2.2.2.2.2.2.2.2.2.2.2.2.2.2.2.2.2.2.2.2.2.2.2.2.2.2.2.2.2.2.2.",
"2.2.2.2.2.2.2.2.2.2.2.2.2.2.2.2.2.2.2.2.2.2.2.2.2.2.2.2.2.2.2.2.2.2.2.2.2.2.2.2.2.2.2.2.2.2.2.2.2.2.2.2.2.2.2.2.2.2.2.2.2.2.2.2.",
"2.2.2.2.2.2.2.2.2.2.2.2.2.2.2.2.2.2.2.2.2.2.2.2.2.2.2.2.2.2.2.2.2.2.2.2.2.2.2.2.2.2.2.2.2.2.2.2.2.2.2.2.2.2.2.2.2.2.2.2.2.2.2.2.",
"2.2.2.2.2.2.2.2.2.2.2.2.2.2.2.2.2.2.a q 0 0 0 q 0 0 0 0 0 0 0 0 0 0 0 0 0 0 0 q 0 e e e e a 2.2.2.2.2.2.2.2.2.2.2.2.2.2.2.2.2.2.",
"2.2.2.2.2.2.2.2.2.2.2.2.2.2.2.2.2.t w 4 6 6 6 5 6 2 4 4 4 4 2 2 2 2 2 2 1 2 1 3 < & X X 9 h y 2.2.2.2.2.2.2.2.2.2.2.2.2.2.2.2.2.",
"2.2.2.2.2.2.2.2.2.2.2.2.2.2.2.2.2.i u *.*.*.*.*.%.@.@.@.+.+.+.+.+.+.X.X.O.O.] #   O y x Z h e 2.2.2.2.2.2.2.2.2.2.2.2.2.2.2.2.2.",
"2.2.2.2.2.2.2.2.2.2.2.2.2.2.2.2.2.t u %.%.%.%.%.%.$.$.o.o.o.o...o.X.X.{ 1 $ X 9 f V A T C h y 2.2.2.2.2.2.2.2.2.2.2.2.2.2.2.2.2.",
"2.2.2.2.2.2.2.2.2.2.2.2.2.2.2.2.2.t u %.%.*.%.%.%.o.$.o.o.o.o.X.+.3 = . o r z Z Y Z Z Z C h y 2.2.2.2.2.2.2.2.2.2.2.2.2.2.2.2.2.",
"2.2.2.2.2.2.2.2.2.2.2.2.2.2.2.2.2.i u @.%.+.$.$.o.o.o.o.+.+...1 % X 8 s B Z Z Z V Z Z Y V h y 2.2.2.2.2.2.2.2.2.2.2.2.2.2.2.2.2.",
"2.2.2.2.2.2.2.2.2.2.2.2.2.2.2.2.2.i u @.%.%.$.$.$.o.+.+.] # . O e j C Z Z C V Z Z Z Z Z V h y 2.2.2.2.2.2.2.2.2.2.2.2.2.2.2.2.2.",
"2.2.2.2.2.2.2.2.2.2.2.2.2.2.2.2.2.i u +.$.$.o.$.X.X.3 % X 7 d x C C V V V C C Z C Z Z Z C h y 2.2.2.2.2.2.2.2.2.2.2.2.2.2.2.2.2.",
"2.2.2.2.2.2.2.2.2.2.2.2.2.2.2.2.2.p u o.$.$.$.X.#.O o r z V Z C B V V V V V V C Z V V Z C h e 2.2.2.2.2.2.2.2.2.2.2.2.2.2.2.2.2.",
"2.2.2.2.2.2.2.2.2.2.2.2.2.2.2.2.2.i u +.o.$.$.[ :.Z z Z Z B B V B V V V V V V V C C C Z V h e 2.2.2.2.2.2.2.2.2.2.2.2.2.2.2.2.2.",
"2.2.2.2.2.2.2.2.2.2.2.2.2.2.2.2.2.i u +.o.o.o.} ;.<.x B B B B B B V B V V V V V V C C C V h e 2.2.2.2.2.2.2.2.2.2.2.2.2.2.2.2.2.",
"2.2.2.2.2.2.2.2.2.2.2.2.2.2.2.2.2.i u X.o. .o.| :.E x B B B B B B V B V V V B V V V V C V h e 2.2.2.2.2.2.2.2.2.2.2.2.2.2.2.2.2.",
"2.2.2.2.2.2.2.2.2.2.2.2.2.2.2.2.2.i u X.o.o.o.} :.E x B B B B M V x B V B B V V V V V V V h e 2.2.2.2.2.2.2.2.2.2.2.2.2.2.2.2.2.",
"2.2.2.2.2.2.2.2.2.2.2.2.2.2.2.2.2.i u X.o.o.{ ` :.E x B B B B B V V V x V B V B V V B V V h e 2.2.2.2.2.2.2.2.2.2.2.2.2.2.2.2.2.",
"2.2.2.2.2.2.2.2.2.2.2.2.2.2.2.2.2.r u X.{ { o.` :.E x B M M M B x V V V B B B V B V V V V h e 2.2.2.2.2.2.2.2.2.2.2.2.2.2.2.2.2.",
"2.2.2.2.2.2.2.2.2.2.2.2.2.2.2.2.2.i u |  . .{ _ :.E z B M B B M V x x V B B B B B V B V B h e 2.2.2.2.2.2.2.2.2.2.2.2.2.2.2.2.2.",
"2.2.2.2.2.2.2.2.2.2.2.2.2.2.2.2.2.i ; | { { .._ :.E z M B x M M x V V x B B B B B B B B B h e 2.2.2.2.2.2.2.2.2.2.2.2.2.2.2.2.2.",
"2.2.2.2.2.2.2.2.2.2.2.2.2.2.2.2.2.i u | { [ { _ :.R x B M M M M V x V v N N M B B B B V B h e 2.2.2.2.2.2.2.2.2.2.2.2.2.2.2.2.2.",
"2.2.2.2.2.2.2.2.2.2.2.2.2.2.2.2.2.i ; [ { { [ ) ;.R x x x M M M x V x V M M B B B B B B B h e 2.2.2.2.2.2.2.2.2.2.2.2.2.2.2.2.2.",
"2.2.2.2.2.2.2.2.2.2.2.2.2.2.2.2.2.i u } [ [ { _ ;.R x x M M M M x V x x M B M M B B B B M h e 2.2.2.2.2.2.2.2.2.2.2.2.2.2.2.2.2.",
"2.2.2.2.2.2.2.2.2.2.2.2.2.2.2.2.2.r u ` [ [ [ ) ;.R z B x M x M V x x V M M M B x B B B B h e 2.2.2.2.2.2.2.2.2.2.2.2.2.2.2.2.2.",
"2.2.2.2.2.2.2.2.2.2.2.2.2.2.2.2.2.i u ` [ [ [ ^ ;.R x x x M x M M x B x M M M B n B B B B h e 2.2.2.2.2.2.2.2.2.2.2.2.2.2.2.2.2.",
"2.2.2.2.2.2.2.2.2.2.2.2.2.2.2.2.2.p ; ` [ ( [ ) ;.R x x x x M x x B x B x B B x B n x B M h e 2.2.2.2.2.2.2.2.2.2.2.2.2.2.2.2.2.",
"2.2.2.2.2.2.2.2.2.2.2.2.2.2.2.2.2.t u ( ' ( ' ^ ;.R z x M x M M x B M x x B x B M B n B M h e 2.2.2.2.2.2.2.2.2.2.2.2.2.2.2.2.2.",
"2.2.2.2.2.2.2.2.2.2.2.2.2.2.2.2.2.p - _ ' ( ' ^ =.R k x z x x x x x x B x x B x M M n M M h e 2.2.2.2.2.2.2.2.2.2.2.2.2.2.2.2.2.",
"2.2.2.2.2.2.2.2.2.2.2.2.2.2.2.2.2.p u ( ( ( ( ^ =.R j m K m x x x M x M x x B x M M M M M h e 2.2.2.2.2.2.2.2.2.2.2.2.2.2.2.2.2.",
"2.2.2.2.2.2.2.2.2.2.2.2.2.2.2.2.2.i * ) / ( / ^ =.W h I 1.G g n x x x B x B B x M x x B M h e 2.2.2.2.2.2.2.2.2.2.2.2.2.2.2.2.2.",
"2.2.2.2.2.2.2.2.2.2.2.2.2.2.2.2.2.p * ) ( / / ! -.W j U Q H d x x x x x M x x x M M x M n h e 2.2.2.2.2.2.2.2.2.2.2.2.2.2.2.2.2.",
"2.2.2.2.2.2.2.2.2.2.2.2.2.2.2.2.2.p u ) / / / ! c R l K S b f x x x x x x x M x x x M M n h e 2.2.2.2.2.2.2.2.2.2.2.2.2.2.2.2.2.",
"2.2.2.2.2.2.2.2.2.2.2.2.2.2.2.2.2.p u ^ / / / ! =.T j L D b f x x l x x x x x x x x M x x h y 2.2.2.2.2.2.2.2.2.2.2.2.2.2.2.2.2.",
"2.2.2.2.2.2.2.2.2.2.2.2.2.2.2.2.2.p u ^ / / / @ =.Y z P P k j x l x x l x x x M M x x M M h e 2.2.2.2.2.2.2.2.2.2.2.2.2.2.2.2.2.",
"2.2.2.2.2.2.2.2.2.2.2.2.2.2.2.2.2.p * ^ / > ^ ! =.R j z j j l l x l x x x x x x x x M x x h e 2.2.2.2.2.2.2.2.2.2.2.2.2.2.2.2.2.",
"2.2.2.2.2.2.2.2.2.2.2.2.2.2.2.2.2.i * ^ / > > @ =.R j x x x x x x x x x x x x x x x x x x h y 2.2.2.2.2.2.2.2.2.2.2.2.2.2.2.2.2.",
"2.2.2.2.2.2.2.2.2.2.2.2.2.2.2.2.2.p - ~ ^ , , + =.R j x x x x l l x l x l x x l x x x x x h y 2.2.2.2.2.2.2.2.2.2.2.2.2.2.2.2.2.",
"2.2.2.2.2.2.2.2.2.2.2.2.2.2.2.2.2.p - ~ , > , @ =.R j x x l l x x l x l x l l x l x l x x h e 2.2.2.2.2.2.2.2.2.2.2.2.2.2.2.2.2.",
"2.2.2.2.2.2.2.2.2.2.2.2.2.2.2.2.2.p u : , > , + =.R k x l x l l x l x l l x x l l x x x x h y 2.2.2.2.2.2.2.2.2.2.2.2.2.2.2.2.2.",
"2.2.2.2.2.2.2.2.2.2.2.2.2.2.2.2.2.p * @ : : , @ =.R j x x l x x x x l x x l x x x l x l l h e 2.2.2.2.2.2.2.2.2.2.2.2.2.2.2.2.2.",
"2.2.2.2.2.2.2.2.2.2.2.2.2.2.2.2.2.p * @ > > , @ =.R j x x x x k l x x l x x x l l x x l x h e 2.2.2.2.2.2.2.2.2.2.2.2.2.2.2.2.2.",
"2.2.2.2.2.2.2.2.2.2.2.2.2.2.2.2.2.p * @ > > : @ =.R j x l l x x x l l x x l l x l x l x l h y 2.2.2.2.2.2.2.2.2.2.2.2.2.2.2.2.2.",
"2.2.2.2.2.2.2.2.2.2.2.2.2.2.2.2.2.p * @ : : , @ =.R j x x l l x l l x l l x l l x l x x x h y 2.2.2.2.2.2.2.2.2.2.2.2.2.2.2.2.2.",
"2.2.2.2.2.2.2.2.2.2.2.2.2.2.2.2.2.p - ! , ^ / @ =.R j x l x x l x x l x x l x x l x l l x h e 2.2.2.2.2.2.2.2.2.2.2.2.2.2.2.2.2.",
"2.2.2.2.2.2.2.2.2.2.2.2.2.2.2.2.2.p * : : : > + =.E j x x l x x n l x l l x x x l x x N x h e 2.2.2.2.2.2.2.2.2.2.2.2.2.2.2.2.2.",
"2.2.2.2.2.2.2.2.2.2.2.2.2.2.2.2.2.2.2.2.2.2.2.2.v W j x l x x l l x l l x l l x n N x n 2.2.2.2.2.2.2.2.2.2.2.2.2.2.2.2.2.2.2.2.",
"2.2.2.2.2.2.2.2.2.2.2.2.2.2.2.2.2.2.2.2.2.2.2.2.F W j x x l l x l l l l l x M n n 2.2.2.2.2.2.2.2.2.2.2.2.2.2.2.2.2.2.2.2.2.2.2.",
"2.2.2.2.2.2.2.2.2.2.2.2.2.2.2.2.2.2.2.2.2.2.2.2.F W j x x l x x l x l n N n n 2.2.2.2.2.2.2.2.2.2.2.2.2.2.2.2.2.2.2.2.2.2.2.2.2.",
"2.2.2.2.2.2.2.2.2.2.2.2.2.2.2.2.2.2.2.2.2.2.2.2.F W j x x x x l x n n n 2.2.2.2.2.2.2.2.2.2.2.2.2.2.2.2.2.2.2.2.2.2.2.2.2.2.2.2.",
"2.2.2.2.2.2.2.2.2.2.2.2.2.2.2.2.2.2.2.2.2.2.2.2.v W z x l l n N n n 2.2.2.2.2.2.2.2.2.2.2.2.2.2.2.2.2.2.2.2.2.2.2.2.2.2.2.2.2.2.",
"2.2.2.2.2.2.2.2.2.2.2.2.2.2.2.2.2.2.2.2.2.2.2.2.c E z x M n n 2.2.2.2.2.2.2.2.2.2.2.2.2.2.2.2.2.2.2.2.2.2.2.2.2.2.2.2.2.2.2.2.2.",
"2.2.2.2.2.2.2.2.2.2.2.2.2.2.2.2.2.2.2.2.2.2.2.2.T <.x x n 2.2.2.2.2.2.2.2.2.2.2.2.2.2.2.2.2.2.2.2.2.2.2.2.2.2.2.2.2.2.2.2.2.2.2.",
"2.2.2.2.2.2.2.2.2.2.2.2.2.2.2.2.2.2.2.2.2.2.2.2.2.T x 2.2.2.2.2.2.2.2.2.2.2.2.2.2.2.2.2.2.2.2.2.2.2.2.2.2.2.2.2.2.2.2.2.2.2.2.2.",
"2.2.2.2.2.2.2.2.2.2.2.2.2.2.2.2.2.2.2.2.2.2.2.2.2.2.2.2.2.2.2.2.2.2.2.2.2.2.2.2.2.2.2.2.2.2.2.2.2.2.2.2.2.2.2.2.2.2.2.2.2.2.2.2.",
"2.2.2.2.2.2.2.2.2.2.2.2.2.2.2.2.2.2.2.2.2.2.2.2.2.2.2.2.2.2.2.2.2.2.2.2.2.2.2.2.2.2.2.2.2.2.2.2.2.2.2.2.2.2.2.2.2.2.2.2.2.2.2.2.",
"2.2.2.2.2.2.2.2.2.2.2.2.2.2.2.2.2.2.2.2.2.2.2.2.2.2.2.2.2.2.2.2.2.2.2.2.2.2.2.2.2.2.2.2.2.2.2.2.2.2.2.2.2.2.2.2.2.2.2.2.2.2.2.2.",
"2.2.2.2.2.2.2.2.2.2.2.2.2.2.2.2.2.2.2.2.2.2.2.2.2.2.2.2.2.2.2.2.2.2.2.2.2.2.2.2.2.2.2.2.2.2.2.2.2.2.2.2.2.2.2.2.2.2.2.2.2.2.2.2.",
"2.2.2.2.2.2.2.2.2.2.2.2.2.2.2.2.2.2.2.2.2.2.2.2.2.2.2.2.2.2.2.2.2.2.2.2.2.2.2.2.2.2.2.2.2.2.2.2.2.2.2.2.2.2.2.2.2.2.2.2.2.2.2.2.",
"2.2.2.2.2.2.2.2.2.2.2.2.2.2.2.2.2.2.2.2.2.2.2.2.2.2.2.2.2.2.2.2.2.2.2.2.2.2.2.2.2.2.2.2.2.2.2.2.2.2.2.2.2.2.2.2.2.2.2.2.2.2.2.2.",
"2.2.2.2.2.2.2.2.2.2.2.2.2.2.2.2.2.2.2.2.2.2.2.2.2.2.2.2.2.2.2.2.2.2.2.2.2.2.2.2.2.2.2.2.2.2.2.2.2.2.2.2.2.2.2.2.2.2.2.2.2.2.2.2."
};
