/* XPM */
static char *result[] = {
/* columns rows colors chars-per-pixel */
"32 32 12 1 ",
"  c black",
". c #190E0E",
"X c #191919",
"o c #323232",
"O c #CD0000",
"+ c #FFCE15",
"@ c #F89642",
"# c #CCBEB4",
"$ c #FFD4A8",
"% c gray83",
"& c #FFFFEB",
"* c None",
/* pixels */
"********************************",
"********************************",
"********************************",
"********************************",
"********************************",
"********************************",
"********************************",
"********************************",
"********************************",
"********************************",
"********************************",
"***********    *** *************",
"********** oooo  *% ************",
"**********OOOOOOO % ************",
"*********          *************",
"**********o$ $ $   *************",
"**********o$ $ $   *************",
"********* oooooo %**************",
"******** Ooooooo %**************",
"*********         **************",
"*********. oooo   **************",
"*********.& ooo#.***************",
"*********.& ooo#.***************",
"**********XXXXX.****************",
"**********X...X.****************",
"*********.+.**@@.***************",
"*********...**...***************",
"*********...**...***************",
"********************************",
"********************************",
"********************************",
"********************************"
};
