/* XPM */
static char *player_xpm[] = {
"64 64 6 1",
"A c #000000"
"B c #083030"
"C c #0A8437"
"D c #0C85A9"
"E c #0DB6FA"
"F c #0E07EB",
"AAAAAAAAAAAAAAAAAAAAAAAAAAAAAAAAAAAAAAAAAAAAAAAAAAAAAAAAAAAAAAAA"
"AAAAAAAAAAAAAAAAAAAAAAAAAAAAAAAAAAAAAAAAAAAAAAAAAAAAAAAAAAAAAAAA"
"AAAAAAAAAAAAAAAAAAAAAAAAAAAAAAAAAAAAAAAAAAAAAAAAAAAAAAAAAAAAAAAA"
"AAAAAAAAAAAAAAAAAAAAAAAAAAAAAAAAAAAAAAAAAAAAAAAAAAAAAAAAAAAAAAAA"
"AAAAAAAAAAAAAAAAAAAAAAAAAAAAAAAAAAAAAAAAAAAAAAAAAAAAAAAAAAAAAAAA"
"AAAAAAAAAAAAAAAAAAAAAAAAAAAAAAAAAAAAAAAAAAAAAAAAAAAAAAAAAAAAAAAA"
"AAAAAAAAAAAAAAAAAAAAAAAAAAAAAAAAAAAAAAAAAAAAAAAAAAAAAAAAAAAAAAAA"
"AAAAAAAAAAAAAAAAAAAAAAAAAAAAAAAAAAAAAAAAAAAAAAAAAAAAAAAAAAAAAAAA"
"AAAAAAAAAAAAAAAAAAAAAAAAAAAAAAAAAAAAAAAAAAAAAAAAAAAAAAAAAAAAAAAA"
"AAAAAAAAAAAAAAAAAAAAAAAAAAAAAAAAAAAAAAAAAAAAAAAAAAAAAAAAAAAAAAAA"
"AAAAAAAAAAAAAAAAAAAAAAAAAAAAAAAAAAAAAAAAAAAAAAAAAAAAAAAAAAAAAAAA"
"AAAAAAAAAAAAAAAAAAAAAAAAAAAAAAAAAAAAAAAAAAAAAAAAAAAAAAAAAAAAAAAA"
"AAAAAAAAAAAAAAAAAAAAAAAAAAAAAAAAAAAAAAAAAAAAAAAAAAAAAAAAAAAAAAAA"
"AAAAAAAAAAAAAAAAAAAAAAAAAAAAAAAAAAAAAAAAAAAAAAAAAAAAAAAAAAAAAAAA"
"AAAAAAAAAAAAAAAAAAAAAAAAAAAAAAAAAAAAAAAAAAAAAAAAAAAAAAAAAAAAAAAA"
"AAAAAAAAAAAAAAAAAAAAAAFFFFFFAAAAAAAAFFFFFFAAAAAAAAAAAAAAAAAAAAAA"
"AAAAAAAAAAAAAAAAAAAAAAFFFFFFAAAAAAAAFFFFFFAAAAAAAAAAAAAAAAAAAAAA"
"AAAAAAAAAAAAAAAAAAFFEEDDDDDDEEEEEEEEDDDDDDEEFFAAAAAAAAAAAAAAAAAA"
"AAAAAAAAAAAAAAAAAAFFEEDDDDDDEEEEEEEEDDDDDDEEFFAAAAAAAAAAAAAAAAAA"
"AAAAAAAAAAAAAAAAAADDDDAADDDDDDDDDDDDDDDDAADDDDAAAAAAAAAAAAAAAAAA"
"AAAAAAAAAAAAAAAAAADDDDAADDDDDDDDDDDDDDDDAADDDDAAAAAAAAAAAAAAAAAA"
"AAAAAAAAAAAAAAAAFFDDAABBAADDDDDDDDDDDDAABBAADDFFAAAAAAAAAAAAAAAA"
"AAAAAAAAAAAAAAAAFFDDAABBAADDDDDDDDDDDDAABBAADDFFAAAAAAAAAAAAAAAA"
"AAAAAAAAAAAAAAAAEEDDAABBAAAADDDDDDDDAABBAAAADDEEAAAAAAAAAAAAAAAA"
"AAAAAAAAAAAAAAAAEEDDAABBAAAADDDDDDDDAABBAAAADDEEAAAAAAAAAAAAAAAA"
"AAAAAAAAAAAAAAAADDDDCCAABBAAAACCCCAABBAAAACCDDDDAAAAAAAAAAAAAAAA"
"AAAAAAAAAAAAAAAADDDDCCAABBAAAACCCCAABBAAAACCDDDDAAAAAAAAAAAAAAAA"
"AAAAAAAAAAAAAAEEDDDDDDCCAABBAACCCCAABBAACCDDDDDDEEAAAAAAAAAAAAAA"
"AAAAAAAAAAAAAAEEDDDDDDCCAABBAACCCCAABBAACCDDDDDDEEAAAAAAAAAAAAAA"
"AAAAAAAAAAAAAADDDDDDDDDDCCAACCDDDDCCAACCDDDDDDDDDDAAAAAAAAAAAAAA"
"AAAAAAAAAAAAAADDDDDDDDDDCCAACCDDDDCCAACCDDDDDDDDDDAAAAAAAAAAAAAA"
"AAAAAAAAAAAAAADDDDDDDDDDDDDDDDDDDDDDDDDDDDDDDDDDDDAAAAAAAAAAAAAA"
"AAAAAAAAAAAAAADDDDDDDDDDDDDDDDDDDDDDDDDDDDDDDDDDDDAAAAAAAAAAAAAA"
"AAAAAAAAAAAAAACCDDDDDDDDDDAAAAAAAAAAAADDDDDDDDDDCCAAAAAAAAAAAAAA"
"AAAAAAAAAAAAAACCDDDDDDDDDDAAAAAAAAAAAADDDDDDDDDDCCAAAAAAAAAAAAAA"
"AAAAAAAAAAAAAAAACCDDDDCCAADDDDDDDDDDDDAACCDDDDCCAAAAAAAAAAAAAAAA"
"AAAAAAAAAAAAAAAACCDDDDCCAADDDDDDDDDDDDAACCDDDDCCAAAAAAAAAAAAAAAA"
"AAAAAAAAAAAAAAAAAACCCCCCAACCAACCCCAACCAACCCCCCAAAAAAAAAAAAAAAAAA"
"AAAAAAAAAAAAAAAAAACCCCCCAACCAACCCCAACCAACCCCCCAAAAAAAAAAAAAAAAAA"
"AAAAAAAAAAAAAAAAAAAAAAAAAACCCCCCCCCCCCAAAAAAAAAAAAAAAAAAAAAAAAAA"
"AAAAAAAAAAAAAAAAAAAAAAAAAACCCCCCCCCCCCAAAAAAAAAAAAAAAAAAAAAAAAAA"
"AAAAAAAAAAAAAAAAAAAAAAAADDAAAAAAAAAAAADDAAAAAAAAAAAAAAAAAAAAAAAA"
"AAAAAAAAAAAAAAAAAAAAAAAADDAAAAAAAAAAAADDAAAAAAAAAAAAAAAAAAAAAAAA"
"AAAAAAAAAAAAAAAAAAAAAAAACCCCDDDDDDDDCCCCAAAAAAAAAAAAAAAAAAAAAAAA"
"AAAAAAAAAAAAAAAAAAAAAAAACCCCDDDDDDDDCCCCAAAAAAAAAAAAAAAAAAAAAAAA"
"AAAAAAAAAAAAAAAAAAAAAAAAAAAACCCCCCCCAAAAAAAAAAAAAAAAAAAAAAAAAAAA"
"AAAAAAAAAAAAAAAAAAAAAAAAAAAACCCCCCCCAAAAAAAAAAAAAAAAAAAAAAAAAAAA"
"AAAAAAAAAAAAAAAAAAAAAAAAAAAAAAAAAAAAAAAAAAAAAAAAAAAAAAAAAAAAAAAA"
"AAAAAAAAAAAAAAAAAAAAAAAAAAAAAAAAAAAAAAAAAAAAAAAAAAAAAAAAAAAAAAAA"
"AAAAAAAAAAAAAAAAAAAAAAAAAAAAAAAAAAAAAAAAAAAAAAAAAAAAAAAAAAAAAAAA"
"AAAAAAAAAAAAAAAAAAAAAAAAAAAAAAAAAAAAAAAAAAAAAAAAAAAAAAAAAAAAAAAA"
"AAAAAAAAAAAAAAAAAAAAAAAAAAAAAAAAAAAAAAAAAAAAAAAAAAAAAAAAAAAAAAAA"
"AAAAAAAAAAAAAAAAAAAAAAAAAAAAAAAAAAAAAAAAAAAAAAAAAAAAAAAAAAAAAAAA"
"AAAAAAAAAAAAAAAAAAAAAAAAAAAAAAAAAAAAAAAAAAAAAAAAAAAAAAAAAAAAAAAA"
"AAAAAAAAAAAAAAAAAAAAAAAAAAAAAAAAAAAAAAAAAAAAAAAAAAAAAAAAAAAAAAAA"
"AAAAAAAAAAAAAAAAAAAAAAAAAAAAAAAAAAAAAAAAAAAAAAAAAAAAAAAAAAAAAAAA"
"AAAAAAAAAAAAAAAAAAAAAAAAAAAAAAAAAAAAAAAAAAAAAAAAAAAAAAAAAAAAAAAA"
"AAAAAAAAAAAAAAAAAAAAAAAAAAAAAAAAAAAAAAAAAAAAAAAAAAAAAAAAAAAAAAAA"
"AAAAAAAAAAAAAAAAAAAAAAAAAAAAAAAAAAAAAAAAAAAAAAAAAAAAAAAAAAAAAAAA"
"AAAAAAAAAAAAAAAAAAAAAAAAAAAAAAAAAAAAAAAAAAAAAAAAAAAAAAAAAAAAAAAA"
"AAAAAAAAAAAAAAAAAAAAAAAAAAAAAAAAAAAAAAAAAAAAAAAAAAAAAAAAAAAAAAAA"
"AAAAAAAAAAAAAAAAAAAAAAAAAAAAAAAAAAAAAAAAAAAAAAAAAAAAAAAAAAAAAAAA"
"AAAAAAAAAAAAAAAAAAAAAAAAAAAAAAAAAAAAAAAAAAAAAAAAAAAAAAAAAAAAAAAA"
"AAAAAAAAAAAAAAAAAAAAAAAAAAAAAAAAAAAAAAAAAAAAAAAAAAAAAAAAAAAAAAAA"
};