/* XPM */
static char *bricks_xpm[] = {
"64 64 31 1",
"A c #2E1A1A"
"B c #2E2625"
"C c #363532"
"D c #403F3C"
"E c #41403D"
"F c #44201D"
"G c #451D1D"
"H c #494845"
"I c #52504D"
"J c #572323"
"K c #6B2A29"
"L c #6D6B68"
"M c #73726E"
"N c #793230"
"O c #802F27"
"P c #846C67"
"Q c #88382F"
"R c #8A7771"
"S c #90827C"
"T c #948A84"
"U c #9A9790"
"V c #9B4231"
"W c #A23D2A"
"X c #A94831"
"Y c #AB5032"
"Z c #B79B8E"
"a c #BAA899"
"b c #BDB09F"
"c c #BEB6A7"
"d c #C0BAAC"
"e c #C2573E",
"UKKNNNNNNNNNNNNNNNNNNNNNNNNNNNddddNNNNNNNNNNNNNNNNNNNNNNNNQQQQdU"
"KKKXXXXXXXQQQQQNNNNNNNQNNQQQNQQddNeeeeNNNNNNNNNNNNNNNXNQXQQQNNKU"
"KXXXXXXXXQXXQXXXXXXXXXXXQQQXQQQdNeXXXXXXeXXXXXXXXXXNXXXXXXQNNNKd"
"JXXXXXXXXXXXXQXXXXXXXXXXXQXXXQQdNeXXeXXXXXXXeXXXXXXXXXXQXXQQQNKd"
"JXXXXXQXXXXXQXQQQQXXXXXXXXXXQQQdNXXXXXXXXXXXXXXXXXQXXXXXXXQQQNNc"
"JXXXXQQQXXQXQQQQXQQXXXXXXXXXQNQdNXXXXQXXXXXXXXXXXXQXXQXXXXXXQNNc"
"JXQQQQQQQQQQQQQQQQQQQXXXXXNQQNQdNXXQXQQXXQQXQXQQQXQQQQQQQQQQQXQc"
"JXQQXQQQQQQQQQNQQQQQQQQQQQNNNNNdNXXXXQXQQQXQQQQQQQQQQQQQQQQQQQQa"
"JQQQQQKQQKQQQNNNNQQQXQQNQQNNNNNdNXQXQQXQQQQQQQQQNNNQQQQQQQQQQQQT"
"JQQQQQKKKKKQQQQKQKQQNNNQNNNNNNNcNXQQQQQQQQQQXQQNKKQKQQQQQQXNNNNT"
"JKQQQQQQKKKKQQQQKKKKKKKKKKKJKKNcNQQKQKQQQQQQQQKKKKKKKKKKKNNKNKJT"
"JKQKKQKKKKKKKQKKKKKKKKKKKKKJJKJcNQQKKKQKKKNNNNKKKKKKJKKKKKKKKKRT"
"JKKKQQKKKKKKQKKKJJJKKKKKKKKKKJJcKNNKNKKKKKKKKKKKKKJJKJJKKKKKKKKT"
"JKKQKKKKKKJJJJJJJJJJJKKKKKKKKJJcKKKKKKKKKKKKKKKGKGGGJGGJJJJJKJGT"
"aSKKKJJJJJJJJJJSCCDEJJJBBJJJJJSLSKNKKKKKKKKKKKKKJAAJJJAJKKKKKJJR"
"UUUUUUdddccddddUUUUUUUUdddUUUUMMMUdccdUUUUUdddddddddddddddddCCUU"
"NNNNNKCHUNNNNNNNNNNNNNNNNNNNNXXXNNNQNNNUNNXXNNNNXXXXNNNNNNNNXXNN"
"XXXNNNNCUNNeeeXXXXXXXXXXXXXXXXXXXXXQXQNUNXXXXXNXXXXXXXNXXXXeXXXX"
"XXXXXNNNUNXXXeXXXXXXXXXXXeXXXXXXXXXeXQNUNXXeXXNXXXXXXXXXXXXeeXXX"
"XXXXXXNNUNXeeXXXeeXXQQXXXXXXXXXXXXXXeXQMNXXeeXXXXQXXXXXXXXXXXXXX"
"XQQQXXNNdNXXXQXXXXXQQXXXXQQQQQQQQQXXXQNMNXXXXXeXXXXQQXXXXXXXXXXX"
"QQQQQXXNdXXXQQXXXQQQQQQQQQQQQQQQQQQQQQQMNXXXXXXXXXXXXQXXXXXXXXXX"
"QQQQQQXNcXXXXXXXXQQQQQQQQQNQQQQQQQQQQQQMNXXXXXXXQQQQQQXXXXXXXXXQ"
"QQQQQQXKcXXXQXQXQQQQQQQQQQQQQQQNQQXXXXQLNXXQQQQQQQQQQQXXQQQXXQQQ"
"QQQQQQQKcKXXQXQXQQQKKQKQKKKKKKKKQQQXQQKLNXQQQQQQQQQQQQQQQQQQQQKQ"
"QKQQQQQKcKNWWNNXNNNKNNNKNKKKNKKKNNNXNNKLQQQQQQQQQQXQQQQQQQQQQQKQ"
"QQQQQQKKcKNNNNNNNNKKKNKKKKKKKKKKNNNNNNKTNQQQQKQQQQQQQKQQQQKQQQKK"
"KOOOOOKKTKKKKKKKKKKKKKKKKKKKKKKKKKKKKKKTKKKKKKKKKKKOKKOOOOOKKKKK"
"JKKKKKJJBKKKKGGGKKKKKKKKKKKKKKJJJJJKJJJSKJJJJJJJJJJJJJJJJJJKKKJJ"
"JKKKKKJJBBJGGJGJJJGJJJJKJJJJJJJJJJJJJGGSKJJJJJJGJGGJJJJJJJKJKJJJ"
"KQQQKKKZLBBGAAJJGGJJJJJJJKKKKKKKKKKKKJaUUKNNNJJJKJGJGJJKJJJJJJJJ"
"cUUUUUMMMMUUUUUdcccccccccccddddddddddddUUUddddMdddddddddddddddcc"
"NNNNNNNNNNNNNNNNNNNNNVNddKKNNNNNNNNNNNNNNNNNNNNNNNNNNHMUUNNNNNNN"
"XXXXeeeeeXXXXXXXXNNVVVNNdKNNNNNNYYNNNNYNYYeeYYYYYYYNNKHUNNXXNXXX"
"XXXXXXXXXXXXXXXXXXXNVVNNdNNYYYYYYYYYNYYYeYYeeYYYYYYYYYKUNXNXXXee"
"XXXXXXXXXXXXXXXXXNXNNVVNdNYQYYYYYYYYYYYYYYYeYeYYQQQQYYKUNNXXXXee"
"XXXXXXXXXXXXVVVXXNXXXXNNdNYYYYYYYYYeYYYYYYeYYeYYYYQQQYNUNXXXXeXX"
"XVXXXXXVXXVVVVVXXXXXXXVNdNYQYYQQYYYYYYYYYYYYYYYYYQQQNNNUNXXXeXXV"
"VXXVXVVVVVVVVVVXXXXXXXVNHNYYQQQYYYYYYYQQYQQQQQYYYQQQNNNUNXXXeXXX"
"VVVXVXVVVQVVVVVVVVVVVXVCCQYQYYYQQQQYYQQQQQQQQQQQQXXQQNNUNXXXXXVQ"
"QVVVVVVQVVQQQVVVVVVVVVVHMQYYQQQQQQYQYQQQQQNQQQQQQQQQQNNUKXXXNNNQ"
"QQVVVVQQQVQVVVQVVVVVVVVNMQQYYQQQQQQQQQQQQQNQNNQNNXNNNNNcKKXQNXNX"
"NQQQVQQQQQQNQQVQQQVVVVVNMQQQQQQQQQQQQQQNNNNNNNNNNNNXNNNcKKXNNNNN"
"NNNNNQQQNNNNNQQVQVQQVVVNLNNNNNNNNNNNNNXNNNNNNNNNNNNNNNNcKWWKKKKK"
"KNNNNNXNKKKKKNNNNQNNNNQKLNNNNNXNNNNNNNXNKNNKKNKNNNNNNKJcaWKKKKKK"
"KKKKKKKKKJJKKKKKKKKKKKKJSKKKKKKKKKKKKKKKKKKKJKKNKKKKKJJTKQKKKKKK"
"KKKKKKKKGJJKKKKKKKKKKKJKRJJKKKKKKKKKKKKKKJJJFFJJJJJJFARTJJJJGJKK"
"JJKJJJJIIIIAAAGGGGGGGGGPPPFFFFFFFFFFFFFFFPPPPPFJJJJJAARTRJJGGJJJ"
"cccaaTTTTSRRSSTTTaaabaaTaaaaccddddcccccccUUTTTTTLcLccUUUUUUcUccc"
"NNNNNNKKNXXXXXXNdKKNNNNNNNNNNNNNNNNNNNNNNNNNNNNMMMCKNNNNNNNNNNNN"
"VVVVVVNXXXXXXXXNdKKNXNXXXXXXXXXNXXXXXXXXXQNQQQNMMCKNNNNNXXXXXXNV"
"VVVVXVXVXXXXeXXNdKNXXXXXXXXXXXXXXXXXXXXXXXXXQQQMMNNXXXXXXXXVXXXX"
"XXXXVXXXXXVXXXXNdKNXXXQeXXQXXXXXXXXXXXQXQXXXXXQMdNXXXXeXVXXXXXXX"
"XXXVXVXXXVXVXXXNUNNNXXQXXQXXXXXXXXXXXQQQQXXXXXQUUNXXXXXVXXVQQXQX"
"XXXVXVVVXVXVVVXUUNNNQXQXQQQQQQQQQQQQQXQXQXXXXXNNUNXXXXXXQQQQQQQX"
"XXXVVVQQQVVVVVXNUNNXQQQXXQXQQQQQQQQQQXQQQQXQXXXNUNXXXQXQQQQQQXXQ"
"XQVVQQVVQVVVVVVNMNNQQQQQQQQQQQQQQQQQQQXXXQQQQXXKTKXXXXQQQNNQWQWW"
"QQQQVQQQQQVVVVVNLNQQQQQQQNQNQQQQQQQQNNNNNNNNNXXKTKNNKQKKQKQQKWWW"
"NNNNNNNNQQQNQQQKLKNNNNNKKKKKKXNNNNKNKNNNNNKKKWWJRKKKQKKKKKKKKKKK"
"NKNNNNNNQQQQQQKKTJNNNNNKNKKKKKKKKKKKKKKKKKKKKQKJRKKKKKKKKKKKKKKK"
"KKKKWKKKKKQQKKKKSJKKKKKKKKKKKKKKKKKKKKKKKKKKKJJJRJGJJJKKQKKJJJJJ"
"JKKKKKKKQQKKQKKKRJJKKKKKKKKKJKKKKJJJJJJKKJJJJGGIPGJJJJKJJJJJJGGG"
"JJJJJJJJAAAJJJGRRRGGJJJJJJJGJJJJJJGAGGJJJJJGGGGHHGGGGGGGGGGGGGGG"
"ccaaaaaaaaaaaaaaaaaaaaaaaaaaaaaaaaaaaaaaaaaZZZaaaaaaaaaaaaaaaaaa"
};
