/* XPM */
static char *result[] = {
/* columns rows colors chars-per-pixel */
"32 32 246 2 ",
"   c #624110",
".  c #624111",
"X  c #634211",
"o  c #644211",
"O  c #644311",
"+  c #654311",
"@  c #644312",
"#  c #654312",
"$  c #654412",
"%  c #664412",
"&  c #674412",
"*  c #674512",
"=  c #664513",
"-  c #674513",
";  c #664514",
":  c #674614",
">  c #684512",
",  c #694512",
"<  c #684612",
"1  c #694612",
"2  c #684613",
"3  c #694613",
"4  c #684713",
"5  c #694713",
"6  c #6A4612",
"7  c #6A4712",
"8  c #6B4712",
"9  c #6A4613",
"0  c #6A4713",
"q  c #6B4713",
"w  c #684614",
"e  c #694714",
"r  c #694715",
"t  c #6A4714",
"y  c #6A4715",
"u  c #694813",
"i  c #6B4812",
"p  c #6A4813",
"a  c #6B4813",
"s  c #6C4912",
"d  c #6C4813",
"f  c #6C4913",
"g  c #6D4913",
"h  c #6F4913",
"j  c #6A4814",
"k  c #6B4814",
"l  c #6A4914",
"z  c #6B4914",
"x  c #6A4815",
"c  c #6B4815",
"v  c #6B4915",
"b  c #6B4A14",
"n  c #6B4916",
"m  c #6C4814",
"M  c #6C4914",
"N  c #6D4914",
"B  c #6C4915",
"V  c #6D4915",
"C  c #6E4914",
"Z  c #6C4A14",
"A  c #6D4A14",
"S  c #6C4A15",
"D  c #6D4A15",
"F  c #6E4A14",
"G  c #6F4A14",
"H  c #6E4B14",
"J  c #6F4B14",
"K  c #6E4A15",
"L  c #6F4A15",
"P  c #6E4B15",
"I  c #6F4B15",
"U  c #6C4916",
"Y  c #6D4916",
"T  c #6D4A16",
"R  c #6D4B16",
"E  c #6C4B17",
"W  c #6D4B17",
"Q  c #6E4A16",
"!  c #6E4B16",
"~  c #6F4B16",
"^  c #6E4B17",
"/  c #6F4C15",
"(  c #6E4C16",
")  c #6F4C16",
"_  c #6F4C17",
"`  c #6E4D17",
"'  c #6F4D17",
"]  c #6C4C18",
"[  c #6D4D18",
"{  c #6E4C18",
"}  c #6E4D18",
"|  c #6F4D18",
" . c #6E4E18",
".. c #6F4F18",
"X. c #704B13",
"o. c #704B14",
"O. c #714B14",
"+. c #704B15",
"@. c #724B14",
"#. c #704B16",
"$. c #704B17",
"%. c #714D14",
"&. c #704C15",
"*. c #714C15",
"=. c #704D15",
"-. c #714D15",
";. c #724C14",
":. c #724D14",
">. c #724C15",
",. c #724D15",
"<. c #734D15",
"1. c #724E14",
"2. c #734E14",
"3. c #724E15",
"4. c #734E15",
"5. c #704C16",
"6. c #714C16",
"7. c #704D16",
"8. c #714D16",
"9. c #704C17",
"0. c #704D17",
"q. c #714D17",
"w. c #724D16",
"e. c #734D16",
"r. c #724D17",
"t. c #734D17",
"y. c #714E16",
"u. c #714E17",
"i. c #714F17",
"p. c #724E16",
"a. c #734E16",
"s. c #724F16",
"d. c #734F16",
"f. c #724E17",
"g. c #734E17",
"h. c #724F17",
"j. c #734F17",
"k. c #744D15",
"l. c #744E15",
"z. c #754E15",
"x. c #744F15",
"c. c #754F15",
"v. c #764F15",
"b. c #744E16",
"n. c #744F16",
"m. c #754F16",
"M. c #744E17",
"N. c #744F17",
"B. c #754F17",
"V. c #764F16",
"C. c #784F14",
"Z. c #714D18",
"A. c #724D18",
"S. c #714E18",
"D. c #724E18",
"F. c #734E18",
"G. c #724F18",
"H. c #734F18",
"J. c #744F18",
"K. c #764F18",
"L. c #735017",
"P. c #735117",
"I. c #745015",
"U. c #755015",
"Y. c #765015",
"T. c #775015",
"R. c #765115",
"E. c #765215",
"W. c #775215",
"Q. c #745016",
"!. c #755016",
"~. c #745116",
"^. c #755116",
"/. c #745017",
"(. c #755017",
"). c #745117",
"_. c #755117",
"`. c #765016",
"'. c #775016",
"]. c #765116",
"[. c #775116",
"{. c #765017",
"}. c #765117",
"|. c #775117",
" X c #745217",
".X c #755217",
"XX c #765216",
"oX c #775216",
"OX c #775316",
"+X c #765217",
"@X c #775217",
"#X c #765317",
"$X c #775317",
"%X c #775417",
"&X c #785015",
"*X c #785215",
"=X c #795215",
"-X c #785315",
";X c #785116",
":X c #785117",
">X c #785216",
",X c #795216",
"<X c #785217",
"1X c #785317",
"2X c #7B5415",
"3X c #7B5515",
"4X c #785417",
"5X c #795417",
"6X c #795517",
"7X c #7A5416",
"8X c #7B5416",
"9X c #7A5516",
"0X c #7B5516",
"qX c #7A5417",
"wX c #7A5517",
"eX c #7A5617",
"rX c #7C5616",
"tX c #715118",
"yX c #725118",
"uX c #735118",
"iX c #735218",
"pX c #745018",
"aX c #755018",
"sX c #755118",
"dX c #765118",
"fX c #775118",
"gX c #755218",
"hX c #745318",
"jX c #755318",
"kX c #765218",
"lX c #775218",
"zX c #765318",
"xX c #775318",
"cX c #765418",
"vX c #785318",
"bX c #795318",
"nX c #785418",
"mX c #795418",
"MX c #785518",
"NX c #795518",
"BX c #7A5418",
"VX c #7A5518",
"CX c #7B5518",
"ZX c #7A5618",
"AX c #7B5618",
"SX c #7D5718",
/* pixels */
"D M t t M F #.F g d m M ~ g.J.F.8.) ) K m a k k D 9.$.9.7.~ ~ ~ ",
"#.P U U c A I C g M M D K 5.q.r.q.5.! M m a k M I 9.) 5.~ ~ ! 9.",
"6.q.9.T n c k a h g A F P I 5.8.5.K N a k V M K 8.u.) P 5.P P 8.",
"j.g.9.T v r r c K C O.&.~ I w.a.I A j p k B V ) ~ ! P S S Q I p.",
"N.j.9.R x r y x V +.*.5.6.6.4.<.;.M e l Z K ~ q.9.~ D l b D ~ d.",
"a.u.' E c c B c V >.e.e.w.n.4.m.&.S z H P 7.w.j.f.9.D j j M ~ p.",
"8.0.0.W D B B V L @.z.v.z.z.[.`.d.7.( / y.j./.dXaXr.A m e k ! 8.",
"K ) 0.0.7.P P +.<.T.v.z.`.'.<X>X_.u.) f.(.:XxXmX<XN.&.A j j M P ",
"D ~ u.u.N.w.6.n.>X,Xn./.[.[.>X8X}.f.j.j.|.qXVXmXbXfX,.J D B N D ",
"K 5.Q.(.N.{.l.w.n.m.m.}.@X[.,X,X].j.pXpX@XBXCXSXmXj.q.5.5.5.*.K ",
"8.f.+X+Xj.n.V.n.w.5.g.kXlX|.>X`.h.| gXzXnXCXCXCXBXN.0.5.5.q.a.,.",
"g.j.j.j.p.6.m.N.q.q.f././.;X&Xb.i.[ ..yX@X5XbXmXvX(.0.8.r.D.N./.",
"g.f.) 7.5.6.8.p.5.q.f.u.H.!.C.v.s.` ]  .g.B.(.sX(.u.' _ q.Z.A.q.",
"F.q.! ! ! ~ ! 5.q.f.H.H.G.(.T.c.x.u.} { ' f.j.N.g.0._ ) ! Q Q ! ",
"N.q.D D D P Q 5.r.f.H.j.p.m.[.v.!.f._ ! 5.9.D.D.f.( ! N k K B T ",
"N.I t j z D K ~ 9.q.q.S.H.!.Y.l.l.-.! Y Y 9.q.q.u.S B 0 a a m K ",
"Q e : ; 3 z D ) 0.8._ u./.b.l.w.-.o.D Y Y Q 5.5.~ ! D k t > 0 V ",
"a * = @ % t S i.d.&.&.a.8.w.e.l.4.P U U V K ~ ~ ~ 9.~ k 0 > > 9 ",
"1 * # # - w A Q.R.:.,.^.!.p.n.}.N.&.K B B N &.5.5.^ ) N 6 > 1 , ",
"* & O O * 2 z %.W.1.I.oX5XnXnXlX}.4.&.D N K -.g.G.7.q.I d q q > ",
"& # .   o > 3 f :.%.2.E.6XAXnXkX+XU.4.-./ =.f.g./.N.j.p.A 8 1 > ",
"& $ % + X @ * 0 D J %.I.XXZXMXuXhXOX=X^.oXQ.j.pX(.(.j.L.I q > > ",
"1 & * + + 3 e k B M -.Q.oX$XNXiXhX%X2XeX5X+XQ.d.a.!./.).&.d > , ",
"s 6 & & < N B c M D P r.d..XcXjXcXwX9X0X4X~.j.y.*.>.p./ I q 6 6 ",
"1 > & & * m B B c B ) a.d.P.tXiXcXrX3X-X^.s.=.P K K A A a 0 6 6 ",
"& % % $ % k V D D D 5.d.!.+X X#X.X6X7X*XU.3.&.F D M a l z 7 , & ",
"& % % $ % 3 V P D D 5.|.}.!.(._.1XmX5XoXn.-.I K g 0 4 5 p 1 > & ",
"% % % % % - k A D ) 8.}.(.g.H.aX}.|.].!.,.I F A f 0 p u < * % % ",
"% % % % % % 2 5 v P P N.pXj.g.M.g.w.k.z.X.A D N d m M a < - & % ",
"% % % * > * u j k m K 5.M.a.r.w.) ! ) *.G A D M k B V k a 5 * > ",
"1 > & 1 1 i A M d M M K w.t.e.q.! ! ) ~ D A M M m V Q K N d q 7 ",
"a 0 > 1 f F / J d a k N w.K.V.b.5.! ~ ~ N M M k N K ~ +.I D K M "
};
