/* XPM */
static char *result[] = {
/* columns rows colors chars-per-pixel */
"32 32 94 2 ",
"   c #025A02",
".  c #025C02",
"X  c #035C03",
"o  c #035D03",
"O  c #025E02",
"+  c #025F02",
"@  c #035F03",
"#  c #026002",
"$  c #026102",
"%  c #036003",
"&  c #026202",
"*  c #026302",
"=  c #036303",
"-  c #016401",
";  c #016601",
":  c #026402",
">  c #026502",
",  c #036403",
"<  c #036503",
"1  c #026602",
"2  c #026702",
"3  c #036603",
"4  c #036703",
"5  c #016B01",
"6  c #026802",
"7  c #026902",
"8  c #036803",
"9  c #036903",
"0  c #026A02",
"q  c #026B02",
"w  c #036A03",
"e  c #036B03",
"r  c #016C01",
"t  c #016D01",
"y  c #026D02",
"u  c #036C03",
"i  c #036D03",
"p  c #026E02",
"a  c #026F02",
"s  c #036E03",
"d  c #036F03",
"f  c #027002",
"g  c #027102",
"h  c #037003",
"j  c #037103",
"k  c #027202",
"l  c #027302",
"z  c #037203",
"x  c #037303",
"c  c #017701",
"v  c #027402",
"b  c #027502",
"n  c #037403",
"m  c #037503",
"M  c #027602",
"N  c #027702",
"B  c #037603",
"V  c #037703",
"C  c #027802",
"Z  c #027902",
"A  c #037803",
"S  c #037903",
"D  c #027A02",
"F  c #027B02",
"G  c #037A03",
"H  c #037B03",
"J  c #017E01",
"K  c #027C02",
"L  c #027D02",
"P  c #037C03",
"I  c #037D03",
"U  c #027E02",
"Y  c #027F02",
"T  c #037E03",
"R  c #037F03",
"E  c #028002",
"W  c #028102",
"Q  c #038003",
"!  c #038103",
"~  c #028202",
"^  c #028302",
"/  c #028402",
"(  c #038403",
")  c #038503",
"_  c #028602",
"`  c #028702",
"'  c #028902",
"]  c #028B02",
"[  c #028E02",
"{  c #028F02",
"}  c #029402",
"|  c #029502",
" . c #029802",
".. c None",
/* pixels */
"................................................................",
"..................................t ............................",
"............................3 V R G V 6 ........................",
"..........................M ( b U b v A m p ....................",
"........................p W C ~ ' A A b m  .l ..................",
"......................S ) Y m U V x N d s 8 h g ................",
"......................w D F j B Y D G N w L h S 2 ..............",
"....................I F A z ~ Z i n  .E d V e n s ..............",
"..................T n ' ~ j ' K h z B s w m [ S i X ............",
"................M i C ~ ` d i s h d s j x e I u o , ............",
"................P ~ h 8 i x G 9 4 h d 8 s L V d e e 0 ..........",
"..............V n U 9 d / d B n = _ { e 3 Y U 9 9 h a c ........",
"............J A < 9 z G | v 3 i s i G w x e e + s d Q ..........",
"............l d b h N h e C e 9 , e A x e <   9 7 6 V ..........",
"............9 i } D d s V z 9 W D w C z x 8 * s 0 i j 2 ........",
"............m w h z < h i j i K H e 9 4 > 7 7 ! H $ 9 m ........",
"............V 4 = d w 4 3 j ^ x u A 7 m n & & 7 7 1 * ( ........",
"............i z / h s [ ^ w u 4 + * O d e & 6 > * > 7 1 ........",
"............j u ' e u m x 4 x 3 6 s + > i 7 & # > & * 5 ........",
"............i x 9 < w w s F n i q i : + P > . i Q 1 + d ........",
"............p S e Z Y = V ] V @ 6 > s 2 $ & * 2 y 1 1 ..........",
"................j G L 8 s e j 8 G P > s 7 j e 0 6 > ............",
"....................% d V x > # y h & & S x q j k ..............",
"........................L H 2 p p q a y f 0 $ ..................",
"............................; r ..- - ..........................",
"................................................................",
"................................................................",
"................................................................",
"................................................................",
"................................................................",
"................................................................",
"................................................................"
};
